<?xml version="1.0" standalone="no"?><!DOCTYPE svg PUBLIC "-//W3C//DTD SVG 1.1//EN" "http://www.w3.org/Graphics/SVG/1.1/DTD/svg11.dtd"><svg t="1565170133154" class="icon" viewBox="0 0 1024 1024" version="1.1" xmlns="http://www.w3.org/2000/svg" p-id="3588" xmlns:xlink="http://www.w3.org/1999/xlink" width="400" height="400"><defs><style type="text/css"></style></defs><path d="M533.943 51.2L165.79 168.229c-12.19 4.876-21.942 17.066-21.942 31.695l2.438 460.8v4.876c0 2.438 14.628 80.457 90.21 153.6 58.514 56.076 199.923 131.657 260.875 163.352 9.753 4.877 17.067 9.753 19.505 12.19l7.314 4.877c4.877 2.438 9.753 2.438 14.629 0l9.752-4.876c36.572-17.067 214.553-107.276 282.82-173.105 75.58-73.143 90.209-151.162 90.209-153.6l4.876-468.114c0-14.629-9.752-26.82-21.943-31.695L533.943 51.2z m329.143 604.648c-2.438 12.19-19.505 65.828-73.143 121.904-53.638 53.638-197.486 126.781-248.686 153.6-4.876 2.438-9.752 2.438-14.628 0-53.639-26.819-195.048-102.4-246.248-153.6-56.076-53.638-70.705-109.714-73.143-121.904L204.8 229.18c0-7.314 4.876-12.19 9.752-14.629L526.63 114.59c7.314-2.438 14.628-2.438 19.504 0l312.077 99.962c7.314 2.438 9.752 7.315 9.752 14.629l-4.876 426.667zM541.257 273.067c36.572 0 70.705 14.628 95.086 39.01s39.01 58.513 39.01 95.085-14.63 70.705-39.01 95.086c-17.067 17.066-39.01 29.257-63.39 34.133v56.076h56.076c9.752 0 17.066 2.438 24.38 9.753 7.315 7.314 9.753 14.628 9.753 24.38s-4.876 17.067-9.752 24.381c-7.315 7.315-14.629 9.753-24.381 9.753h-56.077v92.647c0 9.753-4.876 17.067-9.752 24.381-7.314 7.315-14.629 9.753-24.381 9.753s-17.067-2.438-24.38-9.753c-7.315-7.314-9.753-14.628-9.753-24.38V536.38c-24.381-4.876-43.886-17.067-60.953-34.133-24.38-24.381-39.01-58.515-39.01-95.086s14.63-70.705 39.01-95.086c26.82-24.38 60.953-39.01 97.524-39.01z m80.457 131.657c0-21.943-7.314-41.448-24.38-56.076-31.696-31.696-80.458-31.696-112.153 0-14.629 14.628-24.381 34.133-24.381 56.076 0 21.943 7.314 41.447 24.381 56.076 14.629 14.629 34.133 21.943 56.076 21.943 43.886 2.438 80.457-34.133 80.457-78.02z m0 0" p-id="3589"></path></svg>