<?xml version="1.0" standalone="no"?><!DOCTYPE svg PUBLIC "-//W3C//DTD SVG 1.1//EN" "http://www.w3.org/Graphics/SVG/1.1/DTD/svg11.dtd"><svg t="1615443300703" class="icon" viewBox="0 0 1024 1024" version="1.1" xmlns="http://www.w3.org/2000/svg" p-id="7705" xmlns:xlink="http://www.w3.org/1999/xlink" width="600" height="600"><defs><style type="text/css"></style></defs><path d="M515.501509 425.368619c-117.310706 0-212.689896-95.412707-212.689896-212.689896S398.224321 0.011172 515.501509 0.011172 728.191405 95.42388 728.191405 212.701068s-95.412707 212.667551-212.689896 212.667551z m0-386.26505c-95.714363 0.011172-173.586327 77.871964-173.586327 173.575154s77.871964 173.586327 173.586327 173.586327S689.087836 308.370742 689.087836 212.678723 611.215873 39.114741 515.501509 39.114741z" p-id="7706"></path><path d="M513.065915 586.363597a19.462405 19.462405 0 0 1-9.027338-2.234489L81.977003 364.031879a19.551784 19.551784 0 0 1-10.513274-17.29495 19.551784 19.551784 0 0 1 10.446239-17.33964l216.075148-113.757867a19.551784 19.551784 0 0 1 26.411667 8.189405 19.551784 19.551784 0 0 1-8.189404 26.445184L133.146816 346.647549l388.979955 202.824624a19.551784 19.551784 0 0 1-9.060856 36.869079zM932.792448 368.701962a19.462405 19.462405 0 0 1-9.183752-2.301524l-225.180693-120.103818a19.551784 19.551784 0 0 1-8.055335-26.456357 19.551784 19.551784 0 0 1 26.489874-8.044163l225.147176 120.036783a19.551784 19.551784 0 0 1-9.21727 36.869079z" p-id="7707"></path><path d="M515.579716 1023.93253a19.551784 19.551784 0 0 1-19.551784-19.44006l-2.491456-437.580105a19.551784 19.551784 0 0 1 10.546791-17.462537l419.726533-217.68398a19.551784 19.551784 0 0 1 28.556777 17.361985v424.809996a19.551784 19.551784 0 0 1-10.055203 17.116191L525.031607 1021.496936a19.529439 19.529439 0 0 1-9.451891 2.435594z m17.116191-445.277922l2.23449 392.700381 378.310267-208.924781V381.282139z" p-id="7708"></path><path d="M515.568544 1023.943702a19.462405 19.462405 0 0 1-9.17258-2.301524l-424.55303-226.152696a19.551784 19.551784 0 0 1-10.35686-17.261432V346.736929a19.551784 19.551784 0 0 1 19.551784-19.551784 19.551784 19.551784 0 0 1 19.551785 19.551784V766.541669l414.184998 220.588816a19.551784 19.551784 0 0 1-9.206097 36.869079z" p-id="7709"></path><path d="M560.6382 145.130102c-11.094241-11.049551-20.300338-17.306122-37.32715-17.306123-18.9373 0-31.372234 12.446107-31.372234 30.288507 0 45.985797 84.910606 32.455962 84.910606 98.183475 0 28.668502-18.121711 48.142079-46.522074 51.929539v30.031541h-16.479361v-29.75223c-19.48475-1.899316-38.679016-11.630519-51.125123-23.261037l10.580308-15.14984c12.41259 11.083069 27.830568 20.289166 46.756696 20.289166 23.261037 0 35.159694-12.714246 35.159694-32.455962 0-51.393262-84.910606-39.215293-84.910606-98.730924 0-26.512219 17.875917-45.706485 43.572548-49.493945V79.670728h16.501706v29.752229c19.205438 1.888144 31.651546 11.094241 42.198337 22.445449z" p-id="7710"></path></svg>