<?xml version="1.0" standalone="no"?><!DOCTYPE svg PUBLIC "-//W3C//DTD SVG 1.1//EN" "http://www.w3.org/Graphics/SVG/1.1/DTD/svg11.dtd"><svg t="1615443695281" class="icon" viewBox="0 0 1433 1024" version="1.1" xmlns="http://www.w3.org/2000/svg" p-id="16106" xmlns:xlink="http://www.w3.org/1999/xlink" width="839.6484375" height="600"><defs><style type="text/css"></style></defs><path d="M1228.8 0a204.8 204.8 0 0 1 204.8 204.8v163.84l-59.835733 27.374933A127.1808 127.1808 0 0 0 1310.72 564.565333c11.946667 26.077867 32.290133 47.342933 55.7056 59.323734L1433.6 656.384V819.2a204.8 204.8 0 0 1-204.8 204.8H204.8a204.8 204.8 0 0 1-204.8-204.8v-165.444267l61.201067-26.897066a125.7472 125.7472 0 0 0 0.1024-230.1952L0 369.664V204.8a204.8 204.8 0 0 1 204.8-204.8z m0 102.4H476.9792v11.434667h-68.266667V102.4H204.8a102.4 102.4 0 0 0-102.229333 96.392533L102.4 204.8v98.065067L111.684267 307.2A228.1472 228.1472 0 0 1 102.4 720.5888V819.2a102.4 102.4 0 0 0 102.4 102.4h203.912533v-56.832h68.266667V921.6H1228.8a102.4 102.4 0 0 0 102.229333-96.392533L1331.2 819.2v-98.6112l-9.3184-4.5056A229.546667 229.546667 0 0 1 1331.2 302.865067V204.8a102.4 102.4 0 0 0-102.4-102.4zM476.9792 728.234667v68.266666h-68.266667v-68.266666h68.266667zM1041.066667 614.4a51.2 51.2 0 0 1 0 102.4h-307.2a51.2 51.2 0 0 1 0-102.4h307.2z m-564.087467-22.698667v68.266667h-68.266667v-68.266667h68.266667z m0-136.533333v68.266667h-68.266667v-68.266667h68.266667zM1041.066667 307.2a51.2 51.2 0 0 1 0 102.4h-307.2a51.2 51.2 0 0 1 0-102.4h307.2z m-564.087467 11.434667v68.266666h-68.266667v-68.266666h68.266667z m0-136.533334v68.266667h-68.266667v-68.266667h68.266667z" p-id="16107"></path></svg>