<?xml version="1.0" standalone="no"?><!DOCTYPE svg PUBLIC "-//W3C//DTD SVG 1.1//EN" "http://www.w3.org/Graphics/SVG/1.1/DTD/svg11.dtd"><svg t="1597367561055" class="icon" viewBox="0 0 1131 1024" version="1.1" xmlns="http://www.w3.org/2000/svg" p-id="2786" xmlns:xlink="http://www.w3.org/1999/xlink" width="220.8984375" height="200"><defs><style type="text/css"></style></defs><path d="M996.87806 188.792775h-136.986472A161.615582 161.615582 0 0 0 565.792669 72.470996a161.615582 161.615582 0 0 0-294.112732 116.321779H134.707278C59.27286 188.792775 0 250.759228 0 323.500053c0 65.917056 47.310544 119.485024 107.743721 131.958432v433.834237c0 72.740825 59.27286 134.707278 134.707278 134.707278h646.655713c75.434418 0 134.707278-59.27286 134.707278-134.707278v-433.737544c62.159839-12.183328 107.743721-65.930869 107.743721-132.110378 0.027627-75.379165-59.245233-134.652025-134.679651-134.652025zM704.160471 794.57494c-31.259492 50.501416-93.778477 74.591807-141.862566 74.591807-36.135586-2.43114-91.388777-14.462523-132.248511-67.367452-24.048951-28.855979-38.470034-88.97145-36.06652-132.248511 48.084089 9.669308 74.591807 28.855979 98.585504 45.680575 26.452465 16.83841 38.470034 52.90493 38.470034 52.90493s2.403514 14.421083 12.017569 16.83841c9.669308 0 7.210541-9.669308 7.210541-9.669309V705.631117s0-4.807028-4.807027-9.669308c-108.19956-57.711957-132.248511-129.844997-134.652025-170.718545-2.403514-43.277061 31.259492-76.953881 74.591807-79.357394 40.873548 0 64.922499 26.452465 69.729526 36.06652s12.017569 7.210541 12.017569 7.210541c7.210541 0 12.017569-7.210541 12.017569-7.210541s28.855979-43.277061 76.940068-36.06652c62.518985 12.017569 76.940068 72.13304 52.904929 120.175689-19.241924 48.097902-60.115471 96.181991-117.827428 127.441483-14.421083 4.807028-12.017569 16.824596-12.017569 16.824597v67.326012c2.403514 9.669308 0 16.83841 9.669308 9.669308 7.210541-9.669308 4.807028-14.421083 12.017569-24.048951 2.403514-4.807028 9.669308-26.452465 36.06652-48.097902 43.277061-38.470034 100.989019-48.097902 100.989019-48.097902s2.362074 79.426461-33.745886 127.496736z" p-id="2787"></path></svg>