<?xml version="1.0" standalone="no"?><!DOCTYPE svg PUBLIC "-//W3C//DTD SVG 1.1//EN" "http://www.w3.org/Graphics/SVG/1.1/DTD/svg11.dtd"><svg t="1597474534736" class="icon" viewBox="0 0 1054 1024" version="1.1" xmlns="http://www.w3.org/2000/svg" p-id="10706" xmlns:xlink="http://www.w3.org/1999/xlink" width="205.859375" height="200"><defs><style type="text/css"></style></defs><path d="M897.557333 755.089067c-14.2464-218.453333-33.2416-565.1296-33.2416-565.1296 0-18.996267-18.996267-28.493867-33.243733-28.493867H341.927467c4.7488-47.490133 4.7488-75.984 4.7488-75.984 0-14.2464 14.2464-28.493867 28.493866-28.493867h612.618667c14.247467 0 28.493867 9.4976 28.493867 28.493867 0 0 37.992533 641.1136 37.992533 645.8624 0 18.9952-14.247467 28.493867-28.493867 28.493867H897.557333z" p-id="10707"></path><path d="M812.0768 242.197333s37.991467 641.1136 37.991467 645.863467c0 18.9952-14.2464 28.493867-28.493867 28.493867H128.224c-18.996267 0-28.493867-14.247467-28.493867-28.493867l37.991467-641.1136c0-14.2464 14.247467-28.493867 28.493867-28.493867h612.618666c18.997333-4.7488 28.494933 9.4976 33.243734 23.744zM284.938667 379.92c0 123.473067 66.485333 189.959467 189.959466 189.959467s189.959467-66.485333 189.959467-189.959467c0-28.493867-18.9952-47.490133-47.489067-47.490133s-47.490133 18.996267-47.490133 47.490133c0 66.485333-28.493867 94.9792-94.980267 94.9792s-94.9792-28.493867-94.9792-94.9792c0-28.493867-18.996267-47.490133-47.490133-47.490133s-47.490133 18.996267-47.490133 47.490133z" p-id="10708"></path></svg>