<?xml version="1.0" standalone="no"?><!DOCTYPE svg PUBLIC "-//W3C//DTD SVG 1.1//EN" "http://www.w3.org/Graphics/SVG/1.1/DTD/svg11.dtd"><svg t="1597235186117" class="icon" viewBox="0 0 1024 1024" version="1.1" xmlns="http://www.w3.org/2000/svg" p-id="5517" xmlns:xlink="http://www.w3.org/1999/xlink" width="200" height="200"><defs><style type="text/css"></style></defs><path d="M497.6 297.6h187.2v43.2H497.6zM497.6 388.8h187.2V432H497.6z" p-id="5518"></path><path d="M627.2 779.2c-32 0-65.6 0-102.4-1.6-38.4 0-72-4.8-96-9.6-24-8-44.8-22.4-64-43.2-8-9.6-16-16-22.4-16-12.8 0-35.2 27.2-65.6 83.2L233.6 752c30.4-49.6 57.6-80 81.6-92.8V486.4h-81.6V432h136v232l8 8c14.4 16 28.8 28.8 43.2 36.8 17.6 8 44.8 14.4 80 16 33.6 0 75.2 1.6 121.6 1.6h22.4c14.4-27.2 36.8-51.2 62.4-68.8-46.4-41.6-102.4-81.6-168-118.4l32-40c32 17.6 60.8 35.2 88 54.4 19.2-17.6 36.8-36.8 51.2-54.4l41.6 32c-17.6 20.8-33.6 38.4-51.2 54.4 20.8 16 40 32 59.2 48 16-4.8 35.2-8 52.8-8 49.6 0 96 19.2 129.6 51.2C964.8 624 976 569.6 976 512 976 256 768 48 512 48S48 256 48 512s208 464 464 464c57.6 0 112-11.2 163.2-30.4-32-33.6-51.2-80-51.2-129.6 0-12.8 1.6-25.6 3.2-36.8z m-185.6-158.4V246.4h300.8v236.8H497.6v144c36.8-6.4 72-16 107.2-25.6l12.8 51.2c-49.6 12.8-110.4 25.6-184 38.4l-12.8-49.6c14.4-3.2 20.8-11.2 20.8-20.8z m-155.2-388.8c40 32 75.2 64 102.4 96l-41.6 41.6c-24-30.4-57.6-64-100.8-99.2l40-38.4z" p-id="5519"></path><path d="M816 656c-88 0-160 72-160 160s72 160 160 160 160-72 160-160-72-160-160-160z m96 176H720c-8 0-16-8-16-16s8-16 16-16h192c8 0 16 8 16 16s-8 16-16 16z" p-id="5520"></path></svg>