<?xml version="1.0" standalone="no"?><!DOCTYPE svg PUBLIC "-//W3C//DTD SVG 1.1//EN" "http://www.w3.org/Graphics/SVG/1.1/DTD/svg11.dtd"><svg t="1598001122287" class="icon" viewBox="0 0 1024 1024" version="1.1" xmlns="http://www.w3.org/2000/svg" p-id="2883" xmlns:xlink="http://www.w3.org/1999/xlink" width="200" height="200"><defs><style type="text/css"></style></defs><path d="M889.2416 243.029333a202.922667 202.922667 0 0 1-42.3936 218.112 192.034133 192.034133 0 0 1-234.769067 32.085334l-54.033066 60.416 38.536533 39.594666 23.074133-23.552a29.9008 29.9008 0 0 1 42.7008 0l187.016534 192.853334a31.368533 31.368533 0 0 1 0 43.690666l-85.333334 87.04a29.9008 29.9008 0 0 1-42.7008 0l-187.016533-192.853333a31.368533 31.368533 0 0 1 0-43.690667l21.026133-21.504-36.7616-37.546666-258.696533 288.426666a59.221333 59.221333 0 0 1-85.333333 0l-21.333334-21.845333a62.3616 62.3616 0 0 1 0-87.04l294.673067-251.904-195.720533-200.362667h-61.781334l-71.68-117.418666 57.582934-59.050667 117.623466 73.728 0.785067 61.781333 197.973333 202.752 57.582934-49.152a203.127467 203.127467 0 0 1 18.978133-259.754666 193.672533 193.672533 0 0 1 212.923733-43.690667l-126.839466 127.658667 106.7008 108.885333zM224.017067 807.936a29.9008 29.9008 0 0 0-42.7008 0 31.4368 31.4368 0 0 0 0 43.690667 29.9008 29.9008 0 0 0 42.7008 0 31.4368 31.4368 0 0 0 0-43.690667z m0 0" fill="#888888" p-id="2884"></path></svg>