<?xml version="1.0" standalone="no"?><!DOCTYPE svg PUBLIC "-//W3C//DTD SVG 1.1//EN" "http://www.w3.org/Graphics/SVG/1.1/DTD/svg11.dtd"><svg t="1597923238659" class="icon" viewBox="0 0 1024 1024" version="1.1" xmlns="http://www.w3.org/2000/svg" p-id="2121" xmlns:xlink="http://www.w3.org/1999/xlink" width="200" height="200"><defs><style type="text/css"></style></defs><path d="M1023.85578 512.07978A511.91778 511.91778 0 1 0 165.433149 888.789618c8.701996 11.197995 21.371991 21.691991 37.561984 31.354987a509.678781 509.678781 0 0 0 308.942867 103.854955 509.742781 509.742781 0 0 0 321.995862-114.029951c6.270997-4.542998 11.837995-9.277996 16.637993-14.076994a510.638781 510.638781 0 0 0 173.283925-383.810835z m-975.843581 0A463.925801 463.925801 0 1 1 868.039847 809.378652c-14.333994-73.396968-70.38897-73.716968-145.704937-89.329961-79.346966-16.573993-149.927936-19.516992-121.516948-125.419947 38.265984-28.027988 46.96898-85.298963 93.936959-104.239955 17.661992-22.77999 13.309994-60.213974 0-76.530967-13.309994-16.253993-21.755991-6.079997-24.699989-17.277992-2.750999-59.253975 19.964991-146.215937-20.731991-174.243926a36.089984 36.089984 0 0 0-20.092991-5.566997c-7.102997 0-15.229993 1.407999-22.907991 1.407999a42.936982 42.936982 0 0 1-15.741993-2.751999c-22.90799-8.509996-24.12399-38.649983-49.335979-41.464982h-20.988991c-34.745985 23.48399-76.339967 19.324992-112.493951 29.626988-1.535999 0.384-3.710998 0.768-5.118998 1.599999a68.532971 68.532971 0 0 0-42.552982 35.641985c-11.517995 22.71699-13.821994 53.431977-13.821994 87.793962-0.192 20.156991 0.384 42.040982 0.384 64.309972-17.916992 9.533996-25.275989 29.179987-25.659989 49.719979a100.463957 100.463957 0 0 0 4.734998 34.745985c5.694998 19.132992 23.48499 24.05999 38.073984 41.785982 17.149993 21.115991 28.987988 49.719979 44.024981 65.524972a39.161983 39.161983 0 0 0 19.324991 11.069995v68.597971a108.782953 108.782953 0 0 1-19.388991 19.772991c-64.629972 54.389977-196.447916 30.969987-238.873898 112.045952-5.309998 10.557995-7.741997 14.076994-9.405996 17.468992A461.941802 461.941802 0 0 1 48.012199 512.07978z" p-id="2122"></path></svg>